<svg xmlns="http://www.w3.org/2000/svg" width="44" height="44" viewBox="0 0 44 44">
  <g id="Group_4733" data-name="Group 4733" transform="translate(-1676 -4450)">
    <g id="Group_4732" data-name="Group 4732" transform="translate(33 9)">
      <circle id="Ellipse_78" data-name="Ellipse 78" cx="22" cy="22" r="22" transform="translate(1643 4441)" fill="#f8f8fa"/>
      <circle id="Ellipse_76" data-name="Ellipse 76" cx="22" cy="22" r="22" transform="translate(1643 4441)" fill="#f8f8fa"/>
    </g>
    <g id="left-arrow" transform="translate(1691 4466)">
      <g id="Group_698" data-name="Group 698" transform="translate(-5 0)">
        <path id="Path_275" data-name="Path 275" d="M.976,137.078H21.658l-3.426-3.409a.977.977,0,0,1,1.378-1.384l5.1,5.078h0a.977.977,0,0,1,0,1.383h0l-5.1,5.078a.977.977,0,0,1-1.378-1.384l3.426-3.409H.976a.977.977,0,0,1,0-1.953Z" transform="translate(0 -132)" fill="#f04f23"/>
      </g>
    </g>
  </g>
</svg>
