<svg xmlns="http://www.w3.org/2000/svg" width="41.847" height="45.492" viewBox="0 0 41.847 45.492">
  <g id="Group_7529" data-name="Group 7529" transform="translate(-885.605 -6599.308)">
    <path id="Path_238" data-name="Path 238" d="M1389.164,1221.125h-13.531l3.64,3.624a1.038,1.038,0,0,1-1.464,1.471h0l-5.423-5.392h0a1.037,1.037,0,0,1,0-1.467l0,0h0l5.421-5.4a1.038,1.038,0,0,1,1.482,1.455l-.017.016-3.64,3.624h13.533a1.038,1.038,0,1,1,0,2.075Z" transform="translate(-471.081 5402.346)"/>
    <g id="Group_5309" data-name="Group 5309" transform="translate(1131.755 6393.458)">
      <path id="Path_2270" data-name="Path 2270" d="M-223.4,251.342A22.772,22.772,0,0,1-246.15,228.6,22.772,22.772,0,0,1-223.4,205.85a22.709,22.709,0,0,1,18.984,10.212.707.707,0,0,1-.2.981.706.706,0,0,1-.98-.2,21.3,21.3,0,0,0-17.8-9.577A21.355,21.355,0,0,0-244.735,228.6,21.355,21.355,0,0,0-223.4,249.927a21.3,21.3,0,0,0,17.8-9.577.706.706,0,0,1,.98-.2.707.707,0,0,1,.2.981A22.709,22.709,0,0,1-223.4,251.342Z" transform="translate(0 0)" fill="#e74c22"/>
    </g>
  </g>
</svg>
