<svg xmlns="http://www.w3.org/2000/svg" width="77.145" height="82.888" viewBox="0 0 77.145 82.888">
  <g id="Group_5305" data-name="Group 5305" transform="translate(-1217.563 -2567.362)">
    <line id="Line_62" data-name="Line 62" x2="4.332" y2="0.436" transform="translate(1288.939 2584.491)" fill="none" stroke="#c2c2c2" stroke-linecap="round" stroke-linejoin="round" stroke-width="2.5"/>
    <line id="Line_63" data-name="Line 63" y1="4.197" x2="1.771" transform="translate(1280.938 2569)" fill="none" stroke="#c2c2c2" stroke-linecap="round" stroke-linejoin="round" stroke-width="2.5"/>
    <line id="Line_64" data-name="Line 64" y1="4.452" x2="5.45" transform="translate(1287.5 2572.912)" fill="none" stroke="#c2c2c2" stroke-linecap="round" stroke-linejoin="round" stroke-width="2.5"/>
    <line id="Line_65" data-name="Line 65" x1="4.332" y2="0.436" transform="translate(1219 2584.491)" fill="none" stroke="#c2c2c2" stroke-linecap="round" stroke-linejoin="round" stroke-width="2.5"/>
    <line id="Line_66" data-name="Line 66" x1="1.771" y1="4.197" transform="translate(1229.563 2569)" fill="none" stroke="#c2c2c2" stroke-linecap="round" stroke-linejoin="round" stroke-width="2.5"/>
    <line id="Line_67" data-name="Line 67" x1="5.45" y1="4.452" transform="translate(1219.322 2572.912)" fill="none" stroke="#c2c2c2" stroke-linecap="round" stroke-linejoin="round" stroke-width="2.5"/>
    <path id="Path_2244" data-name="Path 2244" d="M841.776,226.581,852.28,248l6.468-10.578,12.324,1.363-10.577-21.569" transform="translate(416.136 2401)" fill="none" stroke="#c2c2c2" stroke-linecap="round" stroke-linejoin="round" stroke-width="2.5"/>
    <line id="Line_68" data-name="Line 68" x1="4.119" y1="8.399" transform="translate(1272.893 2624.221)" fill="none" stroke="#c2c2c2" stroke-linecap="round" stroke-linejoin="round" stroke-width="2.5"/>
    <line id="Line_69" data-name="Line 69" x2="4.236" y2="8.638" transform="translate(1264.758 2627.915)" fill="none" stroke="#c2c2c2" stroke-linecap="round" stroke-linejoin="round" stroke-width="2.5"/>
    <path id="Path_2245" data-name="Path 2245" d="M837.492,228.07,827.719,248l-6.468-10.578-12.324,1.363,9.991-20.374" transform="translate(416.136 2401)" fill="none" stroke="#c2c2c2" stroke-linecap="round" stroke-linejoin="round" stroke-width="2.5"/>
    <line id="Line_70" data-name="Line 70" y1="9.469" x2="4.643" transform="translate(1243.276 2627.082)" fill="none" stroke="#c2c2c2" stroke-linecap="round" stroke-linejoin="round" stroke-width="2.5"/>
    <line id="Line_71" data-name="Line 71" x1="4.154" y2="8.472" transform="translate(1235.259 2624.148)" fill="none" stroke="#c2c2c2" stroke-linecap="round" stroke-linejoin="round" stroke-width="2.5"/>
    <path id="Path_2246" data-name="Path 2246" d="M844.738,219.966a21.806,21.806,0,0,1-24.312-11.489,21.175,21.175,0,0,1-1.717-4.809,21.716,21.716,0,1,1,26.029,16.3Z" transform="translate(415.419 2401)" fill="none" stroke="#c2c2c2" stroke-linecap="round" stroke-linejoin="round" stroke-width="2.5"/>
    <path id="Path_2268" data-name="Path 2268" d="M-3.93,0H.15L-9.33-21h-3.84L-22.62,0h4.02l2.07-4.86h10.5ZM-15.21-7.92l3.93-9.18,3.96,9.18Z" transform="translate(1267 2609)" fill="#f04f23"/>
    <path id="Path_2267" data-name="Path 2267" d="M868.912,191.992a6.013,6.013,0,0,0-4.41-4.487,6.012,6.012,0,0,0-6.038-8.673,6.008,6.008,0,0,0-9.106-5.352,6.012,6.012,0,0,0-10.4-1.864,6.009,6.009,0,0,0-10.224,2.655,6.011,6.011,0,0,0-8.672,6.037,6.009,6.009,0,0,0-5.353,9.107,6.011,6.011,0,0,0-1.863,10.4A6.008,6.008,0,0,0,815.5,210.04a6.012,6.012,0,0,0,6.037,8.673,6.01,6.01,0,0,0,9.107,5.353,6.012,6.012,0,0,0,10.4,1.863,6.008,6.008,0,0,0,10.223-2.654,6.012,6.012,0,0,0,8.673-6.038,6.009,6.009,0,0,0,5.353-9.106,6.012,6.012,0,0,0,1.863-10.4A6.01,6.01,0,0,0,868.912,191.992Z" transform="translate(416.136 2401)" fill="none" stroke="#f04f23" stroke-linecap="round" stroke-linejoin="round" stroke-width="2.5"/>
  </g>
</svg>
