<svg xmlns="http://www.w3.org/2000/svg" width="92.995" height="82.5" viewBox="0 0 92.995 82.5">
  <g id="Group_5308" data-name="Group 5308" transform="translate(-9878.75 -3169.389)">
    <g id="Group_5304" data-name="Group 5304" transform="translate(9880 3170.639)">
      <path id="Path_2252" data-name="Path 2252" d="M891.318,116.973v-.788c0-2.093-.262-3.133-4.449-5.2-3.26-1.611-5.723-4.544-5.754-8.181,0-.042,0-.085,0-.128.207-10.187,25.126-7.2,18.149-57.036H856.036c-6.977,49.839,17.942,46.848,18.149,57.036,0,.043,0,.086,0,.128-.031,3.637-2.493,6.57-5.754,8.181-4.185,2.068-4.448,3.109-4.448,5.2v.788" transform="translate(-832.402 -45.639)" fill="none" stroke="#f04f23" stroke-linecap="round" stroke-linejoin="round" stroke-width="2.5"/>
      <path id="Path_2253" data-name="Path 2253" d="M853.727,83.047c-.2.043-.4.089-.6.14-8.846,2.267-14.015,11.918-14.015,11.918s9.174,5.976,18.02,3.709a19.629,19.629,0,0,0,8.177-4.634" transform="translate(-834.461 -40.732)" fill="none" stroke="#c2c2c2" stroke-linecap="round" stroke-linejoin="round" stroke-width="2.5"/>
      <path id="Path_2254" data-name="Path 2254" d="M852.648,74.449a15.014,15.014,0,0,0-2.071-.243C842.163,73.819,835,80.937,835,80.937s4.58,5.476,11.04,7.449" transform="translate(-835 -41.893)" fill="none" stroke="#c2c2c2" stroke-linecap="round" stroke-linejoin="round" stroke-width="2.5"/>
      <path id="Path_2255" data-name="Path 2255" d="M851.374,68.046a12.809,12.809,0,0,0-2.58-.831C841.919,65.8,835.1,70.73,835.1,70.73a22.953,22.953,0,0,0,6.413,6.6" transform="translate(-834.987 -42.842)" fill="none" stroke="#c2c2c2" stroke-linecap="round" stroke-linejoin="round" stroke-width="2.5"/>
      <path id="Path_2256" data-name="Path 2256" d="M850.862,61.776a10.763,10.763,0,0,0-.923-.572c-5.5-3.042-12.65-.648-12.65-.648a20.206,20.206,0,0,0,4.285,7.993" transform="translate(-834.7 -43.8)" fill="none" stroke="#c2c2c2" stroke-linecap="round" stroke-linejoin="round" stroke-width="2.5"/>
      <path id="Path_2257" data-name="Path 2257" d="M850.07,55.369a15.48,15.48,0,0,0-8.357-2.037,16.189,16.189,0,0,0,1.742,7.182" transform="translate(-834.119 -44.632)" fill="none" stroke="#c2c2c2" stroke-linecap="round" stroke-linejoin="round" stroke-width="2.5"/>
      <path id="Path_2258" data-name="Path 2258" d="M851.417,50.095a16.4,16.4,0,0,0-5.9-2.068,12.721,12.721,0,0,0,.117,6.419" transform="translate(-833.669 -45.326)" fill="none" stroke="#c2c2c2" stroke-linecap="round" stroke-linejoin="round" stroke-width="2.5"/>
      <path id="Path_2259" data-name="Path 2259" d="M891.558,117.366c2.03,0,3.676-.071,3.676-2.1v-2.888a3.676,3.676,0,0,0-3.676-3.676H862.647a3.676,3.676,0,0,0-3.676,3.676v2.888c0,2.03,1.646,2.1,3.676,2.1Z" transform="translate(-831.855 -37.366)" fill="none" stroke="#c2c2c2" stroke-linecap="round" stroke-linejoin="round" stroke-width="2.5"/>
      <path id="Path_2260" data-name="Path 2260" d="M899.311,83.047c.2.043.4.089.6.14,8.846,2.267,14.015,11.918,14.015,11.918s-9.174,5.976-18.02,3.709a19.629,19.629,0,0,1-8.177-4.634" transform="translate(-828.083 -40.732)" fill="none" stroke="#c2c2c2" stroke-linecap="round" stroke-linejoin="round" stroke-width="2.5"/>
      <path id="Path_2261" data-name="Path 2261" d="M899.4,74.449a15.014,15.014,0,0,1,2.071-.243c8.414-.387,15.576,6.732,15.576,6.732s-4.58,5.476-11.04,7.449" transform="translate(-826.552 -41.893)" fill="none" stroke="#c2c2c2" stroke-linecap="round" stroke-linejoin="round" stroke-width="2.5"/>
      <path id="Path_2262" data-name="Path 2262" d="M900.513,68.046a12.809,12.809,0,0,1,2.58-.831c6.874-1.412,13.694,3.516,13.694,3.516a22.953,22.953,0,0,1-6.413,6.6" transform="translate(-826.406 -42.842)" fill="none" stroke="#c2c2c2" stroke-linecap="round" stroke-linejoin="round" stroke-width="2.5"/>
      <path id="Path_2263" data-name="Path 2263" d="M900.712,61.776a10.6,10.6,0,0,1,.923-.572c5.5-3.042,12.65-.648,12.65-.648A20.2,20.2,0,0,1,910,68.549" transform="translate(-826.38 -43.8)" fill="none" stroke="#c2c2c2" stroke-linecap="round" stroke-linejoin="round" stroke-width="2.5"/>
      <path id="Path_2264" data-name="Path 2264" d="M900.9,55.369a15.48,15.48,0,0,1,8.357-2.037,16.189,16.189,0,0,1-1.742,7.182" transform="translate(-826.355 -44.632)" fill="none" stroke="#c2c2c2" stroke-linecap="round" stroke-linejoin="round" stroke-width="2.5"/>
      <path id="Path_2265" data-name="Path 2265" d="M899.31,50.095a16.4,16.4,0,0,1,5.9-2.068,12.721,12.721,0,0,1-.117,6.419" transform="translate(-826.563 -45.326)" fill="none" stroke="#c2c2c2" stroke-linecap="round" stroke-linejoin="round" stroke-width="2.5"/>
    </g>
    <path id="Path_2269" data-name="Path 2269" d="M-13.073.407A1.583,1.583,0,0,0-14.714-1.2h-5.175l5.034-5.317A4.49,4.49,0,0,0-13.5-9.632a5.106,5.106,0,0,0-1.725-4.185,6.505,6.505,0,0,0-4.383-1.357,5.429,5.429,0,0,0-3.761,1.386,4.545,4.545,0,0,0-1.64,3.592c0,1.782.594,2.658,1.782,2.658a1.586,1.586,0,0,0,1.669-1.5c0-.255-.2-.9-.2-1.159a2.19,2.19,0,0,1,2.262-2.008,2.394,2.394,0,0,1,2.658,2.489,1.712,1.712,0,0,1-.452,1.273L-24.555-1.2a2.551,2.551,0,0,0-.82,1.81c0,.877.848,1.386,1.753,1.386h8.908A1.56,1.56,0,0,0-13.073.407ZM1.264-4.118A5.294,5.294,0,0,0-.687-8.331,6.745,6.745,0,0,0-5.155-9.915L-6-9.887a12.392,12.392,0,0,0-1.3.113l.368-2.234h4.666A1.455,1.455,0,0,0-.659-13.422q0-1.527-1.612-1.527h-5.91a1.422,1.422,0,0,0-1.555,1.357L-10.5-8.558l-.028.509q-.085,1.357,1.612,1.357h4.1A2.842,2.842,0,0,1-2.129-3.807a2.984,2.984,0,0,1-3.082,3c-1.273,0-2.291-.764-3.082-2.262A1.6,1.6,0,0,0-9.708-4.089a1.632,1.632,0,0,0-1.669,1.555A3.758,3.758,0,0,0-10.189.124,6.583,6.583,0,0,0-5.212,2.1,6.411,6.411,0,0,0-.659.322,5.822,5.822,0,0,0,1.264-4.118Z" transform="translate(9938.18 3200.73)" fill="#f04f23"/>
  </g>
</svg>
