<svg xmlns="http://www.w3.org/2000/svg" width="66.746" height="56.019" viewBox="0 0 66.746 56.019">
  <g id="Group_4700" data-name="Group 4700" transform="translate(-745.054 -229.126)">
    <g id="Line_37" data-name="Line 37">
      <path id="Path_2183" data-name="Path 2183" d="M761.683,232.225a1,1,0,0,1-.978-1.217l.243-1.1a1,1,0,1,1,1.953.433l-.243,1.1A1,1,0,0,1,761.683,232.225Z" fill="#f04f23"/>
    </g>
    <g id="Line_38" data-name="Line 38">
      <path id="Path_2184" data-name="Path 2184" d="M752.5,233.853a1,1,0,0,1-.844-.462l-.6-.948a1,1,0,0,1,1.685-1.077l.606.948a1,1,0,0,1-.305,1.381A.987.987,0,0,1,752.5,233.853Z" fill="#f04f23"/>
    </g>
    <g id="Line_39" data-name="Line 39">
      <path id="Path_2185" data-name="Path 2185" d="M747.154,241.5a1.023,1.023,0,0,1-.217-.024l-1.1-.243a1,1,0,1,1,.432-1.953l1.1.243a1,1,0,0,1-.215,1.977Z" fill="#f04f23"/>
    </g>
    <g id="Line_40" data-name="Line 40">
      <path id="Path_2186" data-name="Path 2186" d="M747.834,251.289a1,1,0,0,1-.539-1.844l.948-.605a1,1,0,0,1,1.076,1.687l-.948.605A1,1,0,0,1,747.834,251.289Z" fill="#f04f23"/>
    </g>
    <g id="Line_41" data-name="Line 41">
      <path id="Path_2187" data-name="Path 2187" d="M769.329,237.569a1,1,0,0,1-.539-1.843l.948-.6a1,1,0,1,1,1.076,1.686l-.948.6A1,1,0,0,1,769.329,237.569Z" fill="#f04f23"/>
    </g>
    <g id="Path_1805" data-name="Path 1805">
      <path id="Path_2188" data-name="Path 2188" d="M756.331,250.179a7.56,7.56,0,1,1,10.229-7.972l-1.985.244a5.56,5.56,0,1,0-7.523,5.863Z" fill="#f04f23"/>
    </g>
    <g id="Group_4632" data-name="Group 4632">
      <path id="Path_2189" data-name="Path 2189" d="M811.62,272.59l-1.363-4.707c0-.007,0-.015,0-.023l-6.638-23h-21.3l-.014,0h0l-.014,0H761.018L754.087,268.9l-.007.013-1.06,3.68-.18.63v5.18H811.8v-5.18Zm-21.713-11.178h-6.828l-.014-7.268h6.252Zm.914-7.268h6.322l1.481,7.268h-7.213Zm-7.759-1.5-.013-6.284h5.636l.51,6.284Zm-1.5,0h-6.115l.509-6.284h5.593Zm0,1.5.014,7.268h-6.843l.589-7.268Zm-8.335,7.268h-7.214l1.482-7.268h6.322Zm-.121,1.5-.575,7.075a.751.751,0,0,0,.688.808c.02,0,.041,0,.061,0a.75.75,0,0,0,.747-.69l.584-7.2h6.968l.019,9.648c0,.01.005.019.006.03H763.738l1.973-9.678Zm9.973,0h6.947l.554,6.827a.749.749,0,0,0,.746.69c.021,0,.041,0,.062,0a.748.748,0,0,0,.686-.808l-.544-6.706h7.4l1.973,9.678H783.094c0-.012.007-.022.007-.034ZM802.4,272.59a.739.739,0,0,0,0-.182l-1.935-9.5h6.615a.713.713,0,0,0,.178-.036l1.553,5.381c0,.008,0,.015,0,.023l1.24,4.31Zm4.434-11.178h-6.676l-1.482-7.268H802a.75.75,0,0,0,0-1.5h-3.631l-.862-4.229a.751.751,0,0,0-1.471.3l.8,3.929H790.7l-.51-6.284h12.3ZM762.146,246.36h12.306l-.51,6.284H767.8l.8-3.929a.75.75,0,0,0-1.47-.3l-.862,4.229h-5.937Zm-6.631,22.988a.1.1,0,0,0,.008-.018l4.379-15.186h6.064l-1.481,7.268h-4.168a.75.75,0,0,0,0,1.5h3.862l-1.936,9.5a.741.741,0,0,0,0,.182H754.58ZM810.3,276.9H754.34v-2.81H810.3Z" fill="#c2c2c2"/>
      <path id="Path_2190" data-name="Path 2190" d="M790.851,283.645h-3.619v-3.658a.75.75,0,1,0-1.5,0v3.658h-6.823v-3.658a.75.75,0,1,0-1.5,0v3.658h-3.621a.75.75,0,0,0,0,1.5h17.063a.75.75,0,0,0,0-1.5Z" fill="#c2c2c2"/>
    </g>
  </g>
</svg>
