<svg xmlns="http://www.w3.org/2000/svg" width="53.369" height="82.853" viewBox="0 0 53.369 82.853">
  <g id="Group_5307" data-name="Group 5307" transform="translate(-911.316 -161.397)">
    <path id="Path_2247" data-name="Path 2247" d="M918.96,235.813v-2.8a3.436,3.436,0,0,1,3.436-3.436H953.6a3.435,3.435,0,0,1,3.435,3.436v2.8" fill="none" stroke="#c2c2c2" stroke-linecap="round" stroke-linejoin="round" stroke-width="2.5"/>
    <path id="Path_2248" data-name="Path 2248" d="M943.333,216.217c0,.04,0,.08,0,.119.029,3.4,2.33,6.14,5.378,7.645,3.911,1.932,4.156,2.9,4.156,4.861v.736" fill="none" stroke="#c2c2c2" stroke-linecap="round" stroke-linejoin="round" stroke-width="2.5"/>
    <path id="Path_2249" data-name="Path 2249" d="M923.132,229.578v-.736c0-1.956.245-2.929,4.157-4.861,3.047-1.505,5.348-4.246,5.377-7.645,0-.039,0-.079,0-.119" fill="none" stroke="#c2c2c2" stroke-linecap="round" stroke-linejoin="round" stroke-width="2.5"/>
    <path id="Path_2250" data-name="Path 2250" d="M935.61,235.813H918.237a4.516,4.516,0,0,0-4.516,4.517V243H962.28v-2.67a4.517,4.517,0,0,0-4.517-4.517H935.61Z" fill="none" stroke="#c2c2c2" stroke-linecap="round" stroke-linejoin="round" stroke-width="2.5"/>
    <path id="Path_2251" data-name="Path 2251" d="M940.544,168.629l5.651,11.45a2.841,2.841,0,0,0,2.137,1.553l12.636,1.836a2.837,2.837,0,0,1,1.573,4.839L953.4,197.22a2.836,2.836,0,0,0-.816,2.511l2.158,12.586a2.837,2.837,0,0,1-4.116,2.991l-11.3-5.942a2.834,2.834,0,0,0-2.64,0l-11.3,5.942a2.837,2.837,0,0,1-4.116-2.991l2.158-12.586a2.836,2.836,0,0,0-.816-2.511l-9.144-8.913a2.837,2.837,0,0,1,1.573-4.839l12.636-1.836a2.838,2.838,0,0,0,2.136-1.553l5.652-11.45A2.837,2.837,0,0,1,940.544,168.629Z" fill="none" stroke="#f04f23" stroke-linecap="round" stroke-linejoin="round" stroke-width="2.5"/>
    <line id="Line_72" data-name="Line 72" x2="3.599" y2="0.184" transform="translate(955.404 175.552)" fill="none" stroke="#c2c2c2" stroke-linecap="round" stroke-linejoin="round" stroke-width="2.5"/>
    <line id="Line_73" data-name="Line 73" y1="3.542" x2="1.293" transform="translate(948.328 163)" fill="none" stroke="#c2c2c2" stroke-linecap="round" stroke-linejoin="round" stroke-width="2.5"/>
    <line id="Line_74" data-name="Line 74" y1="3.904" x2="4.324" transform="translate(953.922 165.816)" fill="none" stroke="#c2c2c2" stroke-linecap="round" stroke-linejoin="round" stroke-width="2.5"/>
    <line id="Line_75" data-name="Line 75" x1="3.599" y2="0.184" transform="translate(916.997 175.552)" fill="none" stroke="#c2c2c2" stroke-linecap="round" stroke-linejoin="round" stroke-width="2.5"/>
    <line id="Line_76" data-name="Line 76" x1="1.293" y1="3.542" transform="translate(926.379 163)" fill="none" stroke="#c2c2c2" stroke-linecap="round" stroke-linejoin="round" stroke-width="2.5"/>
    <line id="Line_77" data-name="Line 77" x1="4.324" y1="3.904" transform="translate(917.754 165.816)" fill="none" stroke="#c2c2c2" stroke-linecap="round" stroke-linejoin="round" stroke-width="2.5"/>
  </g>
</svg>
