<svg xmlns="http://www.w3.org/2000/svg" width="63.873" height="82.976" viewBox="0 0 63.873 82.976">
  <g id="Group_5306" data-name="Group 5306" transform="translate(-1623.75 -2567.274)">
    <g id="Group_5300" data-name="Group 5300" transform="translate(869.687 2530)">
      <path id="Path_2240" data-name="Path 2240" d="M794.866,96.188v-.511c0-1.358-.17-2.033-2.885-3.375A6.143,6.143,0,0,1,788.248,87c0-.028,0-.056,0-.083.134-6.609,16.3-4.669,11.773-37H771.979c-4.526,32.331,11.639,30.391,11.774,37,0,.027,0,.055,0,.083a6.141,6.141,0,0,1-3.733,5.306c-2.715,1.342-2.885,2.017-2.885,3.375v.511Z" fill="none" stroke="#f04f23" stroke-linecap="round" stroke-linejoin="round" stroke-width="2.5"/>
      <path id="Path_2241" data-name="Path 2241" d="M797.032,76.469c3.206-4.863,10.427-7.269,10.427-12.083,0-4.962-5.776-4.813-6.739,0" fill="none" stroke="#f04f23" stroke-linecap="round" stroke-linejoin="round" stroke-width="2.5"/>
      <path id="Path_2242" data-name="Path 2242" d="M774.967,76.469c-3.206-4.863-10.426-7.269-10.426-12.083,0-4.962,5.776-4.813,6.739,0" fill="none" stroke="#f04f23" stroke-linecap="round" stroke-linejoin="round" stroke-width="2.5"/>
      <rect id="Rectangle_3752" data-name="Rectangle 3752" width="18.051" height="11.38" transform="translate(755.314 107.62)" fill="none" stroke="#c2c2c2" stroke-linecap="round" stroke-linejoin="round" stroke-width="2.5"/>
      <rect id="Rectangle_3753" data-name="Rectangle 3753" width="25.271" height="22.812" transform="translate(773.365 96.188)" fill="none" stroke="#c2c2c2" stroke-linecap="round" stroke-linejoin="round" stroke-width="2.5"/>
      <rect id="Rectangle_3754" data-name="Rectangle 3754" width="18.051" height="14.99" transform="translate(798.635 104.01)" fill="none" stroke="#c2c2c2" stroke-linecap="round" stroke-linejoin="round" stroke-width="2.5"/>
      <line id="Line_56" data-name="Line 56" x2="4.138" y2="1.142" transform="translate(805.835 54.076)" fill="none" stroke="#c2c2c2" stroke-linecap="round" stroke-linejoin="round" stroke-width="2.5"/>
      <line id="Line_57" data-name="Line 57" y1="3.786" x2="2.418" transform="translate(799.93 39)" fill="none" stroke="#c2c2c2" stroke-linecap="round" stroke-linejoin="round" stroke-width="2.5"/>
      <line id="Line_58" data-name="Line 58" y1="3.424" x2="6.035" transform="translate(805.617 43.487)" fill="none" stroke="#c2c2c2" stroke-linecap="round" stroke-linejoin="round" stroke-width="2.5"/>
      <line id="Line_59" data-name="Line 59" x1="4.138" y2="1.142" transform="translate(762.028 54.076)" fill="none" stroke="#c2c2c2" stroke-linecap="round" stroke-linejoin="round" stroke-width="2.5"/>
      <line id="Line_60" data-name="Line 60" x1="2.418" y1="3.786" transform="translate(769.652 39)" fill="none" stroke="#c2c2c2" stroke-linecap="round" stroke-linejoin="round" stroke-width="2.5"/>
      <line id="Line_61" data-name="Line 61" x1="6.035" y1="3.424" transform="translate(760.349 43.487)" fill="none" stroke="#c2c2c2" stroke-linecap="round" stroke-linejoin="round" stroke-width="2.5"/>
    </g>
    <path id="Path_2266" data-name="Path 2266" d="M-4.508-10.394A1.211,1.211,0,0,0-5.9-11.74H-9.074c-.7,0-1.106.7-1.106,1.442,0,.865.361,1.3,1.106,1.3H-7.3V1.046A1.326,1.326,0,0,0-5.9,2.392,1.211,1.211,0,0,0-4.508,1.046Z" transform="translate(1662 2642.628)" fill="#f04f23"/>
  </g>
</svg>
