<svg xmlns="http://www.w3.org/2000/svg" xmlns:xlink="http://www.w3.org/1999/xlink" width="60" height="60" viewBox="0 0 60 60">
  <defs>
    <filter id="Ellipse_1745" x="0" y="0" width="60" height="60" filterUnits="userSpaceOnUse">
      <feOffset dy="3" input="SourceAlpha"/>
      <feGaussianBlur stdDeviation="3" result="blur"/>
      <feFlood flood-color="#0038d1" flood-opacity="0.161"/>
      <feComposite operator="in" in2="blur"/>
      <feComposite in="SourceGraphic"/>
    </filter>
  </defs>
  <g id="Group_7461" data-name="Group 7461" transform="translate(-1111 -1430)">
    <g transform="matrix(1, 0, 0, 1, 1111, 1430)" filter="url(#Ellipse_1745)">
      <circle id="Ellipse_1745-2" data-name="Ellipse 1745" cx="21" cy="21" r="21" transform="translate(9 6)" fill="#fff"/>
    </g>
    <g id="Group_7458" data-name="Group 7458" transform="translate(978.145 934.598)">
      <path id="Path_23028" data-name="Path 23028" d="M181.294,537.592h-3.13v-6.774c0-.793-.226-1.348-1.2-1.348a1.878,1.878,0,0,0-1.929,1.348v6.774H171.9V526.636h3.13v1.047a5.23,5.23,0,0,1,3.13-1.046c1.015,0,3.13.608,3.13,4.276Z" transform="translate(-11.354 -8.725)" fill="#f04f23" fill-rule="evenodd"/>
      <path id="Path_23029" data-name="Path 23029" d="M157.989,517.24h0a1.469,1.469,0,1,1,1.468-1.47A1.468,1.468,0,0,1,157.989,517.24Z" transform="translate(-0.474)" fill="#f04f23" fill-rule="evenodd"/>
      <path id="Path_23030" data-name="Path 23030" d="M158.984,537.592h-3.13V526.636h3.13Z" transform="translate(0 -8.725)" fill="#f04f23" fill-rule="evenodd"/>
    </g>
  </g>
</svg>
