<svg xmlns="http://www.w3.org/2000/svg" xmlns:xlink="http://www.w3.org/1999/xlink" width="60" height="60" viewBox="0 0 60 60">
  <defs>
    <filter id="Ellipse_1746" x="0" y="0" width="60" height="60" filterUnits="userSpaceOnUse">
      <feOffset dy="3" input="SourceAlpha"/>
      <feGaussianBlur stdDeviation="3" result="blur"/>
      <feFlood flood-color="#0038d1" flood-opacity="0.161"/>
      <feComposite operator="in" in2="blur"/>
      <feComposite in="SourceGraphic"/>
    </filter>
  </defs>
  <g id="Group_7520" data-name="Group 7520" transform="translate(-484 -925)">
    <g transform="matrix(1, 0, 0, 1, 484, 925)" filter="url(#Ellipse_1746)">
      <circle id="Ellipse_1746-2" data-name="Ellipse 1746" cx="21" cy="21" r="21" transform="translate(9 6)" fill="#fff"/>
    </g>
    <g id="Group_293" data-name="Group 293" transform="translate(205.35 401.56)">
      <g id="Group_292" data-name="Group 292">
        <path id="Path_23038" data-name="Path 23038" d="M308.71,538.44a8.06,8.06,0,0,0-8.06,8.05c0,1.78,1.05,4.5,3.31,8.54,1.54,2.76,3.07,5.09,3.13,5.18l1.11,1.68a.6.6,0,0,0,.83.18.617.617,0,0,0,.18-.18l1.11-1.67c.06-.1,1.58-2.41,3.13-5.19,2.26-4.04,3.31-6.76,3.31-8.54A8.058,8.058,0,0,0,308.71,538.44Zm0,4.74a3.26,3.26,0,1,1-3.26,3.26A3.258,3.258,0,0,1,308.71,543.18Z" fill="#e2371a"/>
      </g>
    </g>
  </g>
</svg>
